<svg width="30" height="30" viewBox="0 0 30 30" fill="none" xmlns="http://www.w3.org/2000/svg">
<g clip-path="url(#clip0_1_9)">
<path d="M26.8489 9.20467C26.8671 9.46717 26.8671 9.72967 26.8671 9.99459C26.8671 18.0668 20.7219 27.3764 9.48522 27.3764V27.3716C6.16587 27.3764 2.91546 26.4256 0.121109 24.6329C0.60377 24.691 1.08885 24.72 1.57514 24.7212C4.32595 24.7236 6.99812 23.8006 9.16224 22.101C6.54812 22.0514 4.25579 20.347 3.45498 17.8587C4.37071 18.0353 5.31425 17.999 6.21304 17.7535C3.36304 17.1777 1.31264 14.6736 1.31264 11.7656V11.6881C2.16183 12.1611 3.11264 12.4236 4.08522 12.4527C1.40095 10.6587 0.573528 7.08773 2.1945 4.2958C5.29611 8.11233 9.87232 10.4325 14.7848 10.6781C14.2925 8.55628 14.9651 6.33289 16.5522 4.84136C19.0126 2.52846 22.8824 2.64701 25.1953 5.10628C26.5634 4.83652 27.8747 4.33451 29.0747 3.62322C28.6187 5.03733 27.6643 6.23854 26.3893 7.00185C27.6001 6.8591 28.7832 6.53491 29.8973 6.04015C29.0772 7.26918 28.0441 8.33975 26.8489 9.20467Z" fill="#1D9BF0"/>
</g>
<defs>
<clipPath id="clip0_1_9">
<rect width="30" height="24.6774" fill="white" transform="translate(0 3)"/>
</clipPath>
</defs>
</svg>
